<svg width="161" height="37" viewBox="0 0 161 37" fill="none" xmlns="http://www.w3.org/2000/svg">
<path d="M16.728 17.328C16.056 16.512 15.32 15.936 14.52 15.6C13.736 15.264 12.888 15.096 11.976 15.096C11.08 15.096 10.272 15.264 9.552 15.6C8.832 15.936 8.216 16.448 7.704 17.136C7.192 17.808 6.8 18.672 6.528 19.728C6.256 20.768 6.12 22 6.12 23.424C6.12 24.864 6.232 26.088 6.456 27.096C6.696 28.088 7.032 28.904 7.464 29.544C7.896 30.168 8.424 30.624 9.048 30.912C9.672 31.184 10.368 31.32 11.136 31.32C12.368 31.32 13.416 31.064 14.28 30.552C15.144 30.04 15.96 29.312 16.728 28.368V17.328ZM22.656 0V35.664H19.032C18.248 35.664 17.752 35.304 17.544 34.584L17.04 32.208C16.048 33.344 14.904 34.264 13.608 34.968C12.328 35.672 10.832 36.024 9.12 36.024C7.776 36.024 6.544 35.744 5.424 35.184C4.304 34.624 3.336 33.816 2.52 32.76C1.72 31.688 1.096 30.368 0.648 28.8C0.216 27.232 0 25.44 0 23.424C0 21.6 0.248 19.904 0.744 18.336C1.24 16.768 1.952 15.408 2.88 14.256C3.808 13.104 4.92 12.208 6.216 11.568C7.512 10.912 8.968 10.584 10.584 10.584C11.96 10.584 13.136 10.8 14.112 11.232C15.088 11.664 15.96 12.248 16.728 12.984V0H22.656Z" fill="black"/>
<path d="M34.6504 11.04V35.664H28.6984V11.04H34.6504ZM35.4664 3.864C35.4664 4.376 35.3624 4.856 35.1544 5.304C34.9464 5.752 34.6664 6.144 34.3144 6.48C33.9784 6.816 33.5784 7.088 33.1144 7.296C32.6504 7.488 32.1544 7.584 31.6264 7.584C31.1144 7.584 30.6264 7.488 30.1624 7.296C29.7144 7.088 29.3224 6.816 28.9864 6.48C28.6504 6.144 28.3784 5.752 28.1704 5.304C27.9784 4.856 27.8824 4.376 27.8824 3.864C27.8824 3.336 27.9784 2.84 28.1704 2.376C28.3784 1.912 28.6504 1.512 28.9864 1.176C29.3224 0.84 29.7144 0.576 30.1624 0.384001C30.6264 0.176001 31.1144 0.0720005 31.6264 0.0720005C32.1544 0.0720005 32.6504 0.176001 33.1144 0.384001C33.5784 0.576 33.9784 0.84 34.3144 1.176C34.6664 1.512 34.9464 1.912 35.1544 2.376C35.3624 2.84 35.4664 3.336 35.4664 3.864Z" fill="black"/>
<path d="M56.1499 17.328C55.4779 16.512 54.7419 15.936 53.9419 15.6C53.1579 15.264 52.3099 15.096 51.3979 15.096C50.5019 15.096 49.6939 15.264 48.9739 15.6C48.2539 15.936 47.6379 16.448 47.1259 17.136C46.6139 17.808 46.2219 18.672 45.9499 19.728C45.6779 20.768 45.5419 22 45.5419 23.424C45.5419 24.864 45.6539 26.088 45.8779 27.096C46.1179 28.088 46.4539 28.904 46.8859 29.544C47.3179 30.168 47.8459 30.624 48.4699 30.912C49.0939 31.184 49.7899 31.32 50.5579 31.32C51.7899 31.32 52.8379 31.064 53.7019 30.552C54.5659 30.04 55.3819 29.312 56.1499 28.368V17.328ZM62.0779 0V35.664H58.4539C57.6699 35.664 57.1739 35.304 56.9659 34.584L56.4619 32.208C55.4699 33.344 54.3259 34.264 53.0299 34.968C51.7499 35.672 50.2539 36.024 48.5419 36.024C47.1979 36.024 45.9659 35.744 44.8459 35.184C43.7259 34.624 42.7579 33.816 41.9419 32.76C41.1419 31.688 40.5179 30.368 40.0699 28.8C39.6379 27.232 39.4219 25.44 39.4219 23.424C39.4219 21.6 39.6699 19.904 40.1659 18.336C40.6619 16.768 41.3739 15.408 42.3019 14.256C43.2299 13.104 44.3419 12.208 45.6379 11.568C46.9339 10.912 48.3899 10.584 50.0059 10.584C51.3819 10.584 52.5579 10.8 53.5339 11.232C54.5099 11.664 55.3819 12.248 56.1499 12.984V0H62.0779Z" fill="black"/>
<path d="M80.9363 25.152C79.2243 25.232 77.7842 25.384 76.6162 25.608C75.4482 25.816 74.5123 26.088 73.8083 26.424C73.1042 26.76 72.6003 27.152 72.2962 27.6C71.9922 28.048 71.8403 28.536 71.8403 29.064C71.8403 30.104 72.1442 30.848 72.7523 31.296C73.3763 31.744 74.1843 31.968 75.1763 31.968C76.3923 31.968 77.4403 31.752 78.3203 31.32C79.2162 30.872 80.0883 30.2 80.9363 29.304V25.152ZM67.3522 14.472C70.1842 11.88 73.5923 10.584 77.5763 10.584C79.0163 10.584 80.3043 10.824 81.4403 11.304C82.5763 11.768 83.5363 12.424 84.3203 13.272C85.1042 14.104 85.6963 15.104 86.0963 16.272C86.5123 17.44 86.7203 18.72 86.7203 20.112V35.664H84.0322C83.4723 35.664 83.0403 35.584 82.7363 35.424C82.4323 35.248 82.1923 34.904 82.0163 34.392L81.4883 32.616C80.8643 33.176 80.2563 33.672 79.6643 34.104C79.0723 34.52 78.4563 34.872 77.8163 35.16C77.1763 35.448 76.4883 35.664 75.7523 35.808C75.0322 35.968 74.2322 36.048 73.3522 36.048C72.3122 36.048 71.3522 35.912 70.4723 35.64C69.5923 35.352 68.8323 34.928 68.1923 34.368C67.5523 33.808 67.0563 33.112 66.7043 32.28C66.3523 31.448 66.1763 30.48 66.1763 29.376C66.1763 28.752 66.2803 28.136 66.4883 27.528C66.6963 26.904 67.0323 26.312 67.4963 25.752C67.9763 25.192 68.5923 24.664 69.3443 24.168C70.0963 23.672 71.0163 23.24 72.1043 22.872C73.2083 22.504 74.4883 22.208 75.9443 21.984C77.4003 21.744 79.0643 21.6 80.9363 21.552V20.112C80.9363 18.464 80.5843 17.248 79.8802 16.464C79.1762 15.664 78.1603 15.264 76.8323 15.264C75.8723 15.264 75.0723 15.376 74.4323 15.6C73.8083 15.824 73.2563 16.08 72.7763 16.368C72.2962 16.64 71.8563 16.888 71.4563 17.112C71.0723 17.336 70.6403 17.448 70.1603 17.448C69.7443 17.448 69.3923 17.344 69.1043 17.136C68.8163 16.912 68.5843 16.656 68.4082 16.368L67.3522 14.472Z" fill="black"/>
<path d="M107.327 15.84C107.167 16.096 106.999 16.28 106.823 16.392C106.647 16.488 106.423 16.536 106.151 16.536C105.863 16.536 105.551 16.456 105.215 16.296C104.895 16.136 104.519 15.96 104.087 15.768C103.655 15.56 103.159 15.376 102.599 15.216C102.055 15.056 101.407 14.976 100.655 14.976C99.4873 14.976 98.5673 15.224 97.8953 15.72C97.2393 16.216 96.9113 16.864 96.9113 17.664C96.9113 18.192 97.0793 18.64 97.4153 19.008C97.7673 19.36 98.2233 19.672 98.7832 19.944C99.3593 20.216 100.007 20.464 100.727 20.688C101.447 20.896 102.175 21.128 102.911 21.384C103.663 21.64 104.399 21.936 105.119 22.272C105.839 22.592 106.479 23.008 107.039 23.52C107.615 24.016 108.071 24.616 108.407 25.32C108.759 26.024 108.935 26.872 108.935 27.864C108.935 29.048 108.719 30.144 108.287 31.152C107.871 32.144 107.247 33.008 106.415 33.744C105.583 34.464 104.551 35.032 103.319 35.448C102.103 35.848 100.695 36.048 99.0953 36.048C98.2473 36.048 97.4153 35.968 96.5993 35.808C95.7992 35.664 95.0233 35.456 94.2713 35.184C93.5353 34.912 92.8473 34.592 92.2073 34.224C91.5833 33.856 91.0313 33.456 90.5513 33.024L91.9193 30.768C92.0953 30.496 92.3033 30.288 92.5433 30.144C92.7832 30 93.0872 29.928 93.4553 29.928C93.8233 29.928 94.1673 30.032 94.4873 30.24C94.8232 30.448 95.2073 30.672 95.6393 30.912C96.0713 31.152 96.5753 31.376 97.1513 31.584C97.7433 31.792 98.4873 31.896 99.3833 31.896C100.087 31.896 100.687 31.816 101.183 31.656C101.695 31.48 102.111 31.256 102.431 30.984C102.767 30.712 103.007 30.4 103.151 30.048C103.311 29.68 103.391 29.304 103.391 28.92C103.391 28.344 103.215 27.872 102.863 27.504C102.527 27.136 102.071 26.816 101.495 26.544C100.935 26.272 100.287 26.032 99.5513 25.824C98.8313 25.6 98.0872 25.36 97.3193 25.104C96.5673 24.848 95.8232 24.552 95.0872 24.216C94.3672 23.864 93.7192 23.424 93.1432 22.896C92.5833 22.368 92.1273 21.72 91.7753 20.952C91.4393 20.184 91.2713 19.256 91.2713 18.168C91.2713 17.16 91.4713 16.2 91.8713 15.288C92.2713 14.376 92.8553 13.584 93.6233 12.912C94.4072 12.224 95.3753 11.68 96.5273 11.28C97.6953 10.864 99.0393 10.656 100.559 10.656C102.255 10.656 103.799 10.936 105.191 11.496C106.583 12.056 107.743 12.792 108.671 13.704L107.327 15.84Z" fill="black"/>
<path d="M119.325 0V20.424H120.429C120.829 20.424 121.141 20.376 121.365 20.28C121.605 20.168 121.845 19.952 122.085 19.632L128.205 12.072C128.461 11.736 128.741 11.48 129.045 11.304C129.365 11.128 129.773 11.04 130.269 11.04H135.693L128.037 20.184C127.493 20.904 126.901 21.456 126.261 21.84C126.597 22.08 126.893 22.36 127.149 22.68C127.421 23 127.677 23.344 127.917 23.712L136.125 35.664H130.773C130.309 35.664 129.909 35.592 129.573 35.448C129.237 35.288 128.957 35.008 128.733 34.608L122.445 25.272C122.221 24.904 121.989 24.664 121.749 24.552C121.509 24.44 121.149 24.384 120.669 24.384H119.325V35.664H113.397V0H119.325Z" fill="black"/>
<path d="M148.668 10.656C150.492 10.656 152.148 10.952 153.636 11.544C155.14 12.136 156.42 12.976 157.476 14.064C158.548 15.152 159.372 16.48 159.948 18.048C160.524 19.616 160.812 21.368 160.812 23.304C160.812 25.256 160.524 27.016 159.948 28.584C159.372 30.152 158.548 31.488 157.476 32.592C156.42 33.696 155.14 34.544 153.636 35.136C152.148 35.728 150.492 36.024 148.668 36.024C146.828 36.024 145.156 35.728 143.652 35.136C142.148 34.544 140.86 33.696 139.788 32.592C138.732 31.488 137.908 30.152 137.316 28.584C136.74 27.016 136.452 25.256 136.452 23.304C136.452 21.368 136.74 19.616 137.316 18.048C137.908 16.48 138.732 15.152 139.788 14.064C140.86 12.976 142.148 12.136 143.652 11.544C145.156 10.952 146.828 10.656 148.668 10.656ZM148.668 31.464C150.716 31.464 152.228 30.776 153.204 29.4C154.196 28.024 154.692 26.008 154.692 23.352C154.692 20.696 154.196 18.672 153.204 17.28C152.228 15.888 150.716 15.192 148.668 15.192C146.588 15.192 145.044 15.896 144.036 17.304C143.044 18.696 142.548 20.712 142.548 23.352C142.548 25.992 143.044 28.008 144.036 29.4C145.044 30.776 146.588 31.464 148.668 31.464Z" fill="black"/>
</svg>
